<svg width="65" height="65" viewBox="0 0 65 65" fill="none" xmlns="http://www.w3.org/2000/svg">
<g filter="url(#filter0_d_7_54)">
<path d="M33.5958 14.5542C33.3052 14.2636 32.911 14.1003 32.5 14.1003C32.089 14.1003 31.6948 14.2636 31.4041 14.5542L20.5541 25.4042C20.2718 25.6965 20.1155 26.088 20.1191 26.4944C20.1226 26.9008 20.2856 27.2896 20.573 27.577C20.8604 27.8644 21.2491 28.0274 21.6555 28.0309C22.062 28.0344 22.4535 27.8782 22.7458 27.5959L23.2 27.1417V37.35C23.2 37.7611 23.3633 38.1553 23.654 38.446C23.9446 38.7367 24.3389 38.9 24.75 38.9H27.85C28.2611 38.9 28.6553 38.7367 28.946 38.446C29.2367 38.1553 29.4 37.7611 29.4 37.35V34.25C29.4 33.8389 29.5633 33.4447 29.854 33.154C30.1446 32.8633 30.5389 32.7 30.95 32.7H34.05C34.4611 32.7 34.8553 32.8633 35.146 33.154C35.4367 33.4447 35.6 33.8389 35.6 34.25V37.35C35.6 37.7611 35.7633 38.1553 36.054 38.446C36.3446 38.7367 36.7389 38.9 37.15 38.9H40.25C40.6611 38.9 41.0553 38.7367 41.346 38.446C41.6367 38.1553 41.8 37.7611 41.8 37.35V27.1417L42.2541 27.5959C42.5465 27.8782 42.938 28.0344 43.3444 28.0309C43.7508 28.0274 44.1396 27.8644 44.4269 27.577C44.7143 27.2896 44.8773 26.9008 44.8809 26.4944C44.8844 26.088 44.7282 25.6965 44.4458 25.4042L33.5958 14.5542Z" fill="#FA4A0C"/>
</g>
<defs>
<filter id="filter0_d_7_54" x="-3" y="-3" width="71" height="71" filterUnits="userSpaceOnUse" color-interpolation-filters="sRGB">
<feFlood flood-opacity="0" result="BackgroundImageFix"/>
<feColorMatrix in="SourceAlpha" type="matrix" values="0 0 0 0 0 0 0 0 0 0 0 0 0 0 0 0 0 0 127 0" result="hardAlpha"/>
<feOffset dy="6"/>
<feGaussianBlur stdDeviation="10"/>
<feColorMatrix type="matrix" values="0 0 0 0 0.841667 0 0 0 0 0.219258 0 0 0 0 0 0 0 0 0.4 0"/>
<feBlend mode="normal" in2="BackgroundImageFix" result="effect1_dropShadow_7_54"/>
<feBlend mode="normal" in="SourceGraphic" in2="effect1_dropShadow_7_54" result="shape"/>
</filter>
</defs>
</svg>
