<svg width="31" height="31" viewBox="0 0 31 31" fill="none" xmlns="http://www.w3.org/2000/svg">
<g clip-path="url(#clip0_1590_2)">
<path d="M29.0709 16.7906C28.7279 16.7935 28.3974 16.6623 28.1499 16.425L27.5855 15.8607L26.5169 14.7921V16.3033V29.0833C26.5169 29.4319 26.3784 29.7663 26.1319 30.0128C25.8854 30.2593 25.551 30.3978 25.2024 30.3978H21.3214C20.9728 30.3978 20.6385 30.2593 20.3919 30.0128C20.1454 29.7663 20.0069 29.4319 20.0069 29.0833V25.2023C20.0069 24.5217 19.7365 23.8689 19.2552 23.3876C18.7739 22.9063 18.1211 22.6359 17.4405 22.6359H13.5595C12.8789 22.6359 12.2261 22.9063 11.7448 23.3876C11.2635 23.8689 10.9931 24.5217 10.9931 25.2023V29.0833C10.9931 29.4319 10.8546 29.7663 10.6081 30.0128C10.3615 30.2593 10.0272 30.3978 9.67856 30.3978H5.7976C5.44896 30.3978 5.11461 30.2593 4.86809 30.0128C4.62157 29.7663 4.48308 29.4319 4.48308 29.0833V16.3033V14.7921L3.41449 15.8607L2.85016 16.425C2.60262 16.6623 2.27209 16.7935 1.92906 16.7906C1.58439 16.7876 1.2547 16.6493 1.01098 16.4056C0.767253 16.1619 0.629006 15.8322 0.626011 15.4875C0.62303 15.1445 0.754261 14.8139 0.991571 14.5664L14.5706 0.987336C14.5707 0.987314 14.5707 0.987292 14.5707 0.987269C14.8172 0.740877 15.1515 0.602463 15.5 0.602463C15.8485 0.602463 16.1828 0.740877 16.4293 0.987269C16.4293 0.987292 16.4293 0.987314 16.4294 0.987336L30.0085 14.5664C30.2458 14.814 30.377 15.1445 30.374 15.4875C30.371 15.8322 30.2327 16.1619 29.989 16.4056C29.7453 16.6493 29.4156 16.7876 29.0709 16.7906Z" fill="#F2F2F2" stroke="#ADADAF" stroke-width="1.25192"/>
</g>
<defs>
<clipPath id="clip0_1590_2">
<rect width="31" height="31" fill="white"/>
</clipPath>
</defs>
</svg>
