<svg width="29" height="29" viewBox="0 0 29 29" fill="none" xmlns="http://www.w3.org/2000/svg">
<g opacity="0.3">
<path d="M15.7084 3.625C12.8241 3.625 10.058 4.77076 8.01859 6.81021C5.97913 8.84967 4.83337 11.6158 4.83337 14.5H1.20837L5.90879 19.2004L5.99337 19.3696L10.875 14.5H7.25004C7.25004 9.82375 11.0321 6.04167 15.7084 6.04167C20.3846 6.04167 24.1667 9.82375 24.1667 14.5C24.1667 19.1763 20.3846 22.9583 15.7084 22.9583C13.3763 22.9583 11.2617 22.0038 9.73921 20.4692L8.02337 22.185C9.03042 23.1976 10.228 24.0008 11.547 24.5483C12.8659 25.0958 14.2803 25.3768 15.7084 25.375C18.5926 25.375 21.3587 24.2292 23.3982 22.1898C25.4376 20.1503 26.5834 17.3842 26.5834 14.5C26.5834 11.6158 25.4376 8.84967 23.3982 6.81021C21.3587 4.77076 18.5926 3.625 15.7084 3.625ZM14.5 9.66667V15.7083L19.6355 18.7533L20.5659 17.1946L16.3125 14.6692V9.66667H14.5Z" fill="black"/>
</g>
</svg>
