<svg width="20" height="20" viewBox="0 0 20 20" fill="none" xmlns="http://www.w3.org/2000/svg">
<g clip-path="url(#clip0_121_17)">
<path d="M10.0081 19.2C8.91539 18.675 7.92677 18.1188 7.04221 17.5312C6.15766 16.9438 5.38368 16.3813 4.72026 15.8438C4.05685 15.3063 3.47473 14.6688 2.97392 13.9313C2.47311 13.1938 2.05685 12.5531 1.72514 12.0094C1.39343 11.4656 1.11701 10.75 0.895871 9.8625C0.674733 8.975 0.505627 8.24688 0.388554 7.67813C0.271481 7.10938 0.183676 6.29375 0.125139 5.23125C0.0666028 4.16875 0.0340824 3.3375 0.0275784 2.7375C0.0210743 2.1375 0.0178223 1.225 0.0178223 0C0.0178223 0.325 0.505627 0.60625 1.48124 0.84375C2.45685 1.08125 3.63408 1.2 5.01295 1.2C6.39181 1.2 7.56904 1.08125 8.54465 0.84375C9.52026 0.60625 10.0081 0.325 10.0081 0C10.0081 0.325 10.4959 0.60625 11.4715 0.84375C12.4471 1.08125 13.6243 1.2 15.0032 1.2C16.3821 1.2 17.5593 1.08125 18.5349 0.84375C19.5105 0.60625 19.9983 0.325 19.9983 0C19.9983 1.225 19.9951 2.1375 19.9886 2.7375C19.9821 3.3375 19.9495 4.16875 19.891 5.23125C19.8325 6.29375 19.7447 7.10938 19.6276 7.67813C19.5105 8.24688 19.3414 8.975 19.1203 9.8625C18.8991 10.75 18.6227 11.4656 18.291 12.0094C17.9593 12.5531 17.543 13.1938 17.0422 13.9313C16.5414 14.6688 15.9593 15.3063 15.2959 15.8438C14.6325 16.3813 13.8585 16.9438 12.9739 17.5312C12.0894 18.1188 11.1008 18.675 10.0081 19.2ZM10.0081 2.4C10.0081 2.725 9.64059 3.00625 8.90563 3.24375C8.17067 3.48125 7.28937 3.6 6.26173 3.6C5.55929 3.6 4.86335 3.54375 4.17392 3.43125C3.48449 3.31875 2.93164 3.16875 2.51538 2.98125C2.51538 3.96875 2.52839 4.7625 2.55441 5.3625C2.58042 5.9625 2.64221 6.67813 2.73977 7.50938C2.83734 8.34063 2.98368 9.025 3.1788 9.5625C3.37392 10.1 3.6536 10.7063 4.01782 11.3813C4.38205 12.0563 4.82758 12.6438 5.35441 13.1438C5.88124 13.6438 6.5349 14.1625 7.31538 14.7C8.09587 15.2375 8.99343 15.7375 10.0081 16.2V2.4Z" fill="white"/>
</g>
<defs>
<clipPath id="clip0_121_17">
<rect width="20" height="19.2" fill="white"/>
</clipPath>
</defs>
</svg>
