<svg width="20" height="20" viewBox="0 0 20 20" fill="none" xmlns="http://www.w3.org/2000/svg">
<path d="M10.7375 2.66506C10.7165 2.65456 8.63603 1.66656 6.98053 1.54056C5.24053 1.40506 3.49703 2.32856 3.47903 2.33856L3.24353 1.89706C3.31953 1.85656 5.13353 0.901057 7.01853 1.04156C8.76803 1.17556 10.8645 2.17206 10.953 2.21406L10.7375 2.66506Z" fill="black"/>
<path d="M8.97852 3.64851L8.75952 3.19901L10.4745 2.36301L9.36652 0.840509L9.77102 0.546509L11.2295 2.55051L8.97852 3.64851Z" fill="black"/>
<path d="M1.51146 4.95704L1.29596 4.50604C1.38446 4.46404 3.48096 3.46754 5.23096 3.33354C7.10996 3.19654 8.92946 4.14854 9.00546 4.18904L8.76996 4.63054C8.75246 4.62104 7.00346 3.69704 5.26896 3.83254C3.61346 3.95854 1.53246 4.94704 1.51146 4.95704Z" fill="black"/>
<path d="M3.27097 5.9405L1.01947 4.8425L2.47797 2.8385L2.88247 3.1325L1.77447 4.655L3.48947 5.491L3.27097 5.9405Z" fill="black"/>
<path d="M12.669 19.719C12.0325 19.719 11.387 19.65 10.803 19.52C9.80651 19.298 7.71001 17.6985 7.26651 17.239C6.86551 16.8235 5.79151 15.2285 5.63401 13.931C5.56501 13.366 5.99851 11.6825 6.52901 11.0835C6.63351 10.966 6.74301 10.887 6.85501 10.848C6.83248 10.7966 6.80964 10.7452 6.78651 10.694C6.44151 9.94305 5.93051 9.07554 5.47951 8.30954C4.71601 7.01254 4.43151 6.49454 4.47951 6.19954C4.56001 5.69954 4.97001 5.12254 5.51601 5.02154L5.61251 5.00204C5.75327 4.96811 5.89725 4.94934 6.04201 4.94604C6.51851 4.94604 6.95501 5.21804 7.41651 5.80154C7.81601 6.30704 8.46301 7.70254 9.00751 8.96504C8.98251 8.64704 8.99201 8.38154 9.05901 8.22654C9.32901 7.60004 10.082 7.35354 10.3115 7.33905L10.368 7.33754C10.5135 7.33754 11.258 7.37404 11.603 8.09804C11.658 8.21404 11.7105 8.33904 11.759 8.46554C11.821 8.25054 11.909 8.06304 12.0345 7.95604C12.4205 7.62804 12.949 7.45804 13.3085 7.55904C13.695 7.66754 14.0205 8.07654 14.138 8.60304C14.1885 8.48904 14.2495 8.39654 14.3215 8.34254C14.671 8.08054 15.279 8.05254 15.664 8.31954C16.134 8.64554 17.215 10.5985 17.405 12.3065C17.5605 13.7105 17.736 16.2195 17.1565 17.2535C16.5545 18.326 15.323 19.159 14.4335 19.4785C14.0005 19.633 13.374 19.719 12.669 19.719ZM7.03401 11.329C6.70201 11.362 6.05151 13.222 6.13001 13.8695C6.27101 15.0335 7.27051 16.5225 7.62651 16.8915C8.05001 17.3305 10.055 18.8405 10.911 19.031C11.4605 19.1535 12.0675 19.2185 12.6685 19.2185C13.308 19.2185 13.889 19.141 14.263 19.006C14.9355 18.7645 16.1435 18.033 16.719 17.0065C17.093 16.341 17.1615 14.647 16.907 12.3605C16.7265 10.7315 15.673 8.93355 15.3785 8.72855C15.142 8.56505 14.748 8.64505 14.6205 8.74104C14.55 8.82154 14.4455 9.29254 14.405 9.74104L14.2795 11.1245L13.915 9.78405C13.915 9.78405 13.753 9.18904 13.651 8.71754C13.564 8.31904 13.342 8.08604 13.1725 8.03904C12.986 7.98604 12.6115 8.11954 12.358 8.33554C12.22 8.45304 12.1175 9.13204 12.113 9.66704L12.094 11.7455L11.6195 9.72155C11.6175 9.71255 11.419 8.87004 11.1515 8.31154C10.9355 7.85854 10.4605 7.83554 10.368 7.83554C10.2225 7.84554 9.69001 8.02455 9.51801 8.42305C9.39801 8.70255 9.67001 10.161 9.99051 11.3515L9.51651 11.5075C9.50001 11.464 7.75751 7.03655 7.02501 6.11004C6.55401 5.51404 6.23901 5.44504 6.04301 5.44504C5.93301 5.44504 5.82701 5.46704 5.71551 5.49054L5.60801 5.51204C5.32701 5.56404 5.03151 5.92254 4.97301 6.27904C4.97751 6.47004 5.49501 7.34904 5.91101 8.05554C6.36751 8.83154 6.88551 9.71104 7.24101 10.4845C7.33151 10.681 7.41551 10.8855 7.49301 11.0945L7.49401 11.098C8.03651 11.8455 8.30651 14.304 8.33601 14.5865L7.83951 14.644C7.83751 14.6265 7.60851 12.8755 7.05351 11.3475C7.04744 11.3409 7.04092 11.3348 7.03401 11.329Z" fill="black"/>
</svg>
